<svg width="256" height="32" viewBox="0 0 256 32" fill="none" xmlns="http://www.w3.org/2000/svg">
<path fill-rule="evenodd" clip-rule="evenodd" d="M10.3599 9.76624C10.2014 9.63414 10.0876 9.45694 10.0342 9.25865C9.98074 9.06037 9.99014 8.8506 10.0611 8.65779C10.1321 8.46498 10.2612 8.29845 10.431 8.18078C10.6008 8.06311 10.803 8 11.0102 8H15.99C16.0972 8 16.2 8.04216 16.2757 8.11722C16.3515 8.19227 16.3941 8.29407 16.3941 8.40021V14.793L10.3599 9.76624ZM23.4014 8H18.0385C17.9035 8 17.7739 8.05081 17.6784 8.14124C17.5829 8.23168 17.5293 8.35434 17.5293 8.48223V23.5178C17.5293 23.6457 17.5829 23.7683 17.6784 23.8588C17.7739 23.9492 17.9035 24 18.0385 24H22.0384C22.1735 24 22.303 23.9492 22.3985 23.8588C22.494 23.7683 22.5476 23.6457 22.5476 23.5178V15.3911L27.9868 23.7703C28.0323 23.8405 28.0961 23.8985 28.1721 23.9387C28.248 23.9789 28.3336 24 28.4206 24H33.9606C34.0956 24 34.2252 23.9492 34.3207 23.8588C34.4162 23.7683 34.4698 23.6457 34.4698 23.5178V8.48223C34.4698 8.4189 34.4566 8.3562 34.431 8.29769C34.4055 8.23918 34.3679 8.18602 34.3207 8.14124C34.2734 8.09646 34.2172 8.06094 34.1554 8.03671C34.0937 8.01247 34.0274 8 33.9606 8H29.8395C29.7044 8 29.5749 8.05081 29.4794 8.14124C29.3839 8.23168 29.3302 8.35434 29.3302 8.48223V16.695L23.8352 8.2297C23.7897 8.15951 23.7259 8.10154 23.6499 8.06133C23.574 8.02111 23.4884 8 23.4014 8ZM41.9657 22.7414C41.9122 22.5431 41.7985 22.3659 41.6399 22.2338L35.6058 17.207V23.5999C35.6058 23.6524 35.6162 23.7044 35.6366 23.753C35.6569 23.8016 35.6866 23.8457 35.7241 23.8828C35.7617 23.92 35.8062 23.9495 35.8552 23.9696C35.9043 23.9897 35.9568 24.0001 36.0099 24.0001H40.9897C41.1969 24.0001 41.3991 23.937 41.5689 23.8193C41.7386 23.7016 41.8678 23.5351 41.9387 23.3423C42.0097 23.1495 42.0191 22.9397 41.9657 22.7414Z" fill="#D381C9"/>
<path d="M245.892 14.244C246.652 14.244 247.232 14.436 247.632 14.82C248.032 15.204 248.232 15.824 248.232 16.68V21H245.94V17.388C245.94 16.884 245.872 16.536 245.736 16.344C245.6 16.144 245.4 16.044 245.136 16.044C244.768 16.044 244.512 16.208 244.368 16.536C244.224 16.856 244.152 17.312 244.152 17.904V21H241.86V17.388C241.86 16.908 241.796 16.564 241.668 16.356C241.54 16.148 241.348 16.044 241.092 16.044C240.7 16.044 240.432 16.22 240.288 16.572C240.152 16.924 240.084 17.432 240.084 18.096V21H237.792V14.364H239.52L239.856 15.18H239.916C240.092 14.908 240.344 14.684 240.672 14.508C241.008 14.332 241.42 14.244 241.908 14.244C242.396 14.244 242.796 14.328 243.108 14.496C243.428 14.656 243.688 14.88 243.888 15.168H243.96C244.168 14.872 244.436 14.644 244.764 14.484C245.1 14.324 245.476 14.244 245.892 14.244Z" fill="#D381C9"/>
<path d="M236.175 14.244C236.303 14.244 236.435 14.252 236.571 14.268C236.707 14.284 236.807 14.3 236.871 14.316L236.667 16.476C236.587 16.46 236.487 16.444 236.367 16.428C236.255 16.412 236.095 16.404 235.887 16.404C235.695 16.404 235.487 16.432 235.263 16.488C235.047 16.544 234.859 16.668 234.699 16.86C234.539 17.044 234.459 17.336 234.459 17.736V21H232.167V14.364H233.871L234.231 15.42H234.339C234.523 15.092 234.779 14.816 235.107 14.592C235.443 14.36 235.799 14.244 236.175 14.244Z" fill="#D381C9"/>
<path d="M230.862 17.664C230.862 18.776 230.566 19.632 229.974 20.232C229.382 20.824 228.57 21.12 227.538 21.12C226.898 21.12 226.33 20.988 225.834 20.724C225.338 20.452 224.946 20.06 224.658 19.548C224.378 19.028 224.238 18.4 224.238 17.664C224.238 16.568 224.534 15.724 225.126 15.132C225.718 14.54 226.534 14.244 227.574 14.244C228.214 14.244 228.778 14.376 229.266 14.64C229.762 14.904 230.15 15.292 230.43 15.804C230.718 16.308 230.862 16.928 230.862 17.664ZM226.566 17.664C226.566 18.232 226.642 18.668 226.794 18.972C226.946 19.268 227.202 19.416 227.562 19.416C227.914 19.416 228.162 19.268 228.306 18.972C228.458 18.668 228.534 18.232 228.534 17.664C228.534 17.096 228.458 16.668 228.306 16.38C228.162 16.092 227.91 15.948 227.55 15.948C227.206 15.948 226.954 16.092 226.794 16.38C226.642 16.668 226.566 17.096 226.566 17.664Z" fill="#D381C9"/>
<path d="M220.47 21H218.19V12.432H223.254V14.292H220.47V15.924H223.038V17.784H220.47V21Z" fill="#D381C9"/>
<path d="M211.053 14.244C211.741 14.244 212.301 14.436 212.733 14.82C213.165 15.204 213.381 15.824 213.381 16.68V21H211.089V17.376C211.089 16.936 211.025 16.604 210.897 16.38C210.769 16.156 210.565 16.044 210.285 16.044C209.853 16.044 209.561 16.22 209.409 16.572C209.265 16.924 209.193 17.432 209.193 18.096V21H206.901V14.364H208.629L208.941 15.24H209.025C209.233 14.928 209.505 14.684 209.841 14.508C210.185 14.332 210.589 14.244 211.053 14.244Z" fill="#D381C9"/>
<path d="M205.597 17.664C205.597 18.776 205.301 19.632 204.709 20.232C204.117 20.824 203.305 21.12 202.273 21.12C201.633 21.12 201.065 20.988 200.569 20.724C200.073 20.452 199.681 20.06 199.393 19.548C199.113 19.028 198.973 18.4 198.973 17.664C198.973 16.568 199.269 15.724 199.861 15.132C200.453 14.54 201.269 14.244 202.309 14.244C202.949 14.244 203.513 14.376 204.001 14.64C204.497 14.904 204.885 15.292 205.165 15.804C205.453 16.308 205.597 16.928 205.597 17.664ZM201.301 17.664C201.301 18.232 201.377 18.668 201.529 18.972C201.681 19.268 201.937 19.416 202.297 19.416C202.649 19.416 202.897 19.268 203.041 18.972C203.193 18.668 203.269 18.232 203.269 17.664C203.269 17.096 203.193 16.668 203.041 16.38C202.897 16.092 202.645 15.948 202.285 15.948C201.941 15.948 201.689 16.092 201.529 16.38C201.377 16.668 201.301 17.096 201.301 17.664Z" fill="#D381C9"/>
<path d="M196.522 11.688C196.85 11.688 197.134 11.756 197.374 11.892C197.622 12.028 197.746 12.3 197.746 12.708C197.746 13.1 197.622 13.368 197.374 13.512C197.134 13.648 196.85 13.716 196.522 13.716C196.186 13.716 195.898 13.648 195.658 13.512C195.426 13.368 195.31 13.1 195.31 12.708C195.31 12.3 195.426 12.028 195.658 11.892C195.898 11.756 196.186 11.688 196.522 11.688ZM197.662 14.364V21H195.37V14.364H197.662Z" fill="#D381C9"/>
<path d="M193.091 19.308C193.299 19.308 193.487 19.288 193.655 19.248C193.831 19.2 194.011 19.144 194.195 19.08V20.748C193.947 20.852 193.683 20.94 193.403 21.012C193.123 21.084 192.767 21.12 192.335 21.12C191.903 21.12 191.523 21.052 191.195 20.916C190.875 20.78 190.623 20.548 190.439 20.22C190.255 19.884 190.163 19.416 190.163 18.816V16.08H189.359V15.144L190.379 14.424L190.967 13.032H192.467V14.364H194.099V16.08H192.467V18.66C192.467 19.092 192.675 19.308 193.091 19.308Z" fill="#D381C9"/>
<path d="M187.1 11.688C187.428 11.688 187.712 11.756 187.952 11.892C188.2 12.028 188.324 12.3 188.324 12.708C188.324 13.1 188.2 13.368 187.952 13.512C187.712 13.648 187.428 13.716 187.1 13.716C186.764 13.716 186.476 13.648 186.236 13.512C186.004 13.368 185.888 13.1 185.888 12.708C185.888 12.3 186.004 12.028 186.236 11.892C186.476 11.756 186.764 11.688 187.1 11.688ZM188.24 14.364V21H185.948V14.364H188.24Z" fill="#D381C9"/>
<path d="M184.669 18.96C184.669 19.376 184.573 19.748 184.381 20.076C184.197 20.404 183.897 20.66 183.481 20.844C183.073 21.028 182.533 21.12 181.861 21.12C181.389 21.12 180.965 21.092 180.589 21.036C180.221 20.988 179.845 20.892 179.461 20.748V18.912C179.885 19.104 180.313 19.244 180.745 19.332C181.177 19.412 181.517 19.452 181.765 19.452C182.261 19.452 182.509 19.34 182.509 19.116C182.509 19.02 182.469 18.936 182.389 18.864C182.309 18.792 182.165 18.712 181.957 18.624C181.757 18.536 181.469 18.416 181.093 18.264C180.541 18.032 180.129 17.768 179.857 17.472C179.585 17.168 179.449 16.744 179.449 16.2C179.449 15.552 179.697 15.064 180.193 14.736C180.697 14.408 181.361 14.244 182.185 14.244C182.625 14.244 183.037 14.292 183.421 14.388C183.805 14.484 184.205 14.624 184.621 14.808L183.997 16.284C183.669 16.132 183.337 16.012 183.001 15.924C182.665 15.836 182.397 15.792 182.197 15.792C181.821 15.792 181.633 15.884 181.633 16.068C181.633 16.148 181.665 16.22 181.729 16.284C181.801 16.348 181.933 16.42 182.125 16.5C182.317 16.58 182.597 16.696 182.965 16.848C183.349 17 183.665 17.168 183.913 17.352C184.169 17.528 184.357 17.744 184.477 18C184.605 18.248 184.669 18.568 184.669 18.96Z" fill="#D381C9"/>
<path d="M176.999 11.688C177.327 11.688 177.611 11.756 177.851 11.892C178.099 12.028 178.223 12.3 178.223 12.708C178.223 13.1 178.099 13.368 177.851 13.512C177.611 13.648 177.327 13.716 176.999 13.716C176.663 13.716 176.375 13.648 176.135 13.512C175.903 13.368 175.787 13.1 175.787 12.708C175.787 12.3 175.903 12.028 176.135 11.892C176.375 11.756 176.663 11.688 176.999 11.688ZM178.139 14.364V21H175.847V14.364H178.139Z" fill="#D381C9"/>
<path d="M174.252 14.364V21H172.524L172.236 20.172H172.104C171.896 20.508 171.612 20.752 171.252 20.904C170.892 21.048 170.508 21.12 170.1 21.12C169.668 21.12 169.276 21.036 168.924 20.868C168.572 20.7 168.292 20.436 168.084 20.076C167.884 19.716 167.784 19.252 167.784 18.684V14.364H170.076V17.988C170.076 18.42 170.136 18.748 170.256 18.972C170.384 19.196 170.588 19.308 170.868 19.308C171.3 19.308 171.588 19.132 171.732 18.78C171.884 18.428 171.96 17.924 171.96 17.268V14.364H174.252Z" fill="#D381C9"/>
<path d="M163.925 21.132C163.925 20.804 163.949 20.48 163.997 20.16H163.925C163.773 20.424 163.557 20.652 163.277 20.844C162.997 21.028 162.629 21.12 162.173 21.12C161.469 21.12 160.897 20.828 160.457 20.244C160.017 19.66 159.797 18.808 159.797 17.688C159.797 16.568 160.021 15.716 160.469 15.132C160.917 14.54 161.497 14.244 162.209 14.244C162.673 14.244 163.045 14.336 163.325 14.52C163.613 14.696 163.845 14.916 164.021 15.18H164.069L164.237 14.364H166.217V23.88H163.925V21.132ZM163.109 19.344C163.485 19.344 163.745 19.228 163.889 18.996C164.033 18.756 164.105 18.4 164.105 17.928V17.652C164.105 17.132 164.033 16.732 163.889 16.452C163.753 16.164 163.481 16.02 163.073 16.02C162.441 16.02 162.125 16.588 162.125 17.724C162.125 18.3 162.205 18.716 162.365 18.972C162.525 19.22 162.773 19.344 163.109 19.344Z" fill="#D381C9"/>
<path d="M156.64 21.12C155.632 21.12 154.828 20.848 154.228 20.304C153.628 19.76 153.328 18.896 153.328 17.712C153.328 16.904 153.48 16.248 153.784 15.744C154.088 15.232 154.5 14.856 155.02 14.616C155.548 14.368 156.148 14.244 156.82 14.244C157.228 14.244 157.612 14.288 157.972 14.376C158.34 14.464 158.68 14.588 158.992 14.748L158.32 16.44C158.048 16.32 157.792 16.224 157.552 16.152C157.32 16.08 157.076 16.044 156.82 16.044C156.476 16.044 156.196 16.18 155.98 16.452C155.764 16.724 155.656 17.14 155.656 17.7C155.656 18.276 155.764 18.688 155.98 18.936C156.204 19.176 156.488 19.296 156.832 19.296C157.16 19.296 157.488 19.244 157.816 19.14C158.152 19.036 158.468 18.892 158.764 18.708V20.532C158.492 20.708 158.184 20.852 157.84 20.964C157.496 21.068 157.096 21.12 156.64 21.12Z" fill="#D381C9"/>
<path d="M150.297 21L149.877 19.392H147.093L146.661 21H144.117L146.913 12.396H149.997L152.829 21H150.297ZM149.025 16.092C148.985 15.94 148.929 15.724 148.857 15.444C148.785 15.156 148.713 14.86 148.641 14.556C148.569 14.252 148.513 14.004 148.473 13.812C148.441 14.004 148.389 14.244 148.317 14.532C148.253 14.82 148.185 15.104 148.113 15.384C148.049 15.664 147.993 15.9 147.945 16.092L147.573 17.496H149.397L149.025 16.092Z" fill="#D381C9"/>
<path d="M140.525 18.96C140.525 19.376 140.429 19.748 140.237 20.076C140.053 20.404 139.753 20.66 139.337 20.844C138.929 21.028 138.389 21.12 137.717 21.12C137.245 21.12 136.821 21.092 136.445 21.036C136.077 20.988 135.701 20.892 135.317 20.748V18.912C135.741 19.104 136.169 19.244 136.601 19.332C137.033 19.412 137.373 19.452 137.621 19.452C138.117 19.452 138.365 19.34 138.365 19.116C138.365 19.02 138.325 18.936 138.245 18.864C138.165 18.792 138.021 18.712 137.813 18.624C137.613 18.536 137.325 18.416 136.949 18.264C136.397 18.032 135.985 17.768 135.713 17.472C135.441 17.168 135.305 16.744 135.305 16.2C135.305 15.552 135.553 15.064 136.049 14.736C136.553 14.408 137.217 14.244 138.041 14.244C138.481 14.244 138.893 14.292 139.277 14.388C139.661 14.484 140.061 14.624 140.477 14.808L139.853 16.284C139.525 16.132 139.193 16.012 138.857 15.924C138.521 15.836 138.253 15.792 138.053 15.792C137.677 15.792 137.489 15.884 137.489 16.068C137.489 16.148 137.521 16.22 137.585 16.284C137.657 16.348 137.789 16.42 137.981 16.5C138.173 16.58 138.453 16.696 138.821 16.848C139.205 17 139.521 17.168 139.769 17.352C140.025 17.528 140.213 17.744 140.333 18C140.461 18.248 140.525 18.568 140.525 18.96Z" fill="#D381C9"/>
<path d="M132.148 21.12C131.14 21.12 130.336 20.848 129.736 20.304C129.136 19.76 128.836 18.896 128.836 17.712C128.836 16.904 128.988 16.248 129.292 15.744C129.596 15.232 130.008 14.856 130.528 14.616C131.056 14.368 131.656 14.244 132.328 14.244C132.736 14.244 133.12 14.288 133.48 14.376C133.848 14.464 134.188 14.588 134.5 14.748L133.828 16.44C133.556 16.32 133.3 16.224 133.06 16.152C132.828 16.08 132.584 16.044 132.328 16.044C131.984 16.044 131.704 16.18 131.488 16.452C131.272 16.724 131.164 17.14 131.164 17.7C131.164 18.276 131.272 18.688 131.488 18.936C131.712 19.176 131.996 19.296 132.34 19.296C132.668 19.296 132.996 19.244 133.324 19.14C133.66 19.036 133.976 18.892 134.272 18.708V20.532C134 20.708 133.692 20.852 133.348 20.964C133.004 21.068 132.604 21.12 132.148 21.12Z" fill="#D381C9"/>
<path d="M126.386 11.688C126.714 11.688 126.998 11.756 127.238 11.892C127.486 12.028 127.61 12.3 127.61 12.708C127.61 13.1 127.486 13.368 127.238 13.512C126.998 13.648 126.714 13.716 126.386 13.716C126.05 13.716 125.762 13.648 125.522 13.512C125.29 13.368 125.174 13.1 125.174 12.708C125.174 12.3 125.29 12.028 125.522 11.892C125.762 11.756 126.05 11.688 126.386 11.688ZM127.526 14.364V21H125.234V14.364H127.526Z" fill="#D381C9"/>
<path d="M121.322 14.244C122.082 14.244 122.662 14.436 123.062 14.82C123.462 15.204 123.662 15.824 123.662 16.68V21H121.37V17.388C121.37 16.884 121.302 16.536 121.166 16.344C121.03 16.144 120.83 16.044 120.566 16.044C120.198 16.044 119.942 16.208 119.798 16.536C119.654 16.856 119.582 17.312 119.582 17.904V21H117.29V17.388C117.29 16.908 117.226 16.564 117.098 16.356C116.97 16.148 116.778 16.044 116.522 16.044C116.13 16.044 115.862 16.22 115.718 16.572C115.582 16.924 115.514 17.432 115.514 18.096V21H113.222V14.364H114.95L115.286 15.18H115.346C115.522 14.908 115.774 14.684 116.102 14.508C116.438 14.332 116.85 14.244 117.338 14.244C117.826 14.244 118.226 14.328 118.538 14.496C118.858 14.656 119.118 14.88 119.318 15.168H119.39C119.598 14.872 119.866 14.644 120.194 14.484C120.53 14.324 120.906 14.244 121.322 14.244Z" fill="#D381C9"/>
<path d="M108.792 14.244C109.76 14.244 110.524 14.496 111.084 15C111.644 15.504 111.924 16.264 111.924 17.28V18.3H107.832C107.848 18.644 107.976 18.928 108.216 19.152C108.464 19.376 108.82 19.488 109.284 19.488C109.7 19.488 110.08 19.448 110.424 19.368C110.768 19.288 111.124 19.16 111.492 18.984V20.628C111.172 20.796 110.82 20.92 110.436 21C110.06 21.08 109.584 21.12 109.008 21.12C108.336 21.12 107.736 21.004 107.208 20.772C106.688 20.532 106.276 20.16 105.972 19.656C105.668 19.152 105.516 18.508 105.516 17.724C105.516 16.924 105.652 16.268 105.924 15.756C106.204 15.244 106.588 14.864 107.076 14.616C107.572 14.368 108.144 14.244 108.792 14.244ZM108.876 15.804C108.604 15.804 108.376 15.888 108.192 16.056C108.016 16.224 107.912 16.492 107.88 16.86H109.848C109.84 16.564 109.752 16.316 109.584 16.116C109.424 15.908 109.188 15.804 108.876 15.804Z" fill="#D381C9"/>
<path d="M103.536 19.308C103.744 19.308 103.932 19.288 104.1 19.248C104.276 19.2 104.456 19.144 104.64 19.08V20.748C104.392 20.852 104.128 20.94 103.848 21.012C103.568 21.084 103.212 21.12 102.78 21.12C102.348 21.12 101.968 21.052 101.64 20.916C101.32 20.78 101.068 20.548 100.884 20.22C100.7 19.884 100.608 19.416 100.608 18.816V16.08H99.8041V15.144L100.824 14.424L101.412 13.032H102.912V14.364H104.544V16.08H102.912V18.66C102.912 19.092 103.12 19.308 103.536 19.308Z" fill="#D381C9"/>
<path d="M99.0169 18.96C99.0169 19.376 98.9209 19.748 98.7289 20.076C98.5449 20.404 98.2449 20.66 97.8289 20.844C97.4209 21.028 96.8809 21.12 96.2089 21.12C95.7369 21.12 95.3129 21.092 94.9369 21.036C94.5689 20.988 94.1929 20.892 93.8089 20.748V18.912C94.2329 19.104 94.6609 19.244 95.0929 19.332C95.5249 19.412 95.8649 19.452 96.1129 19.452C96.6089 19.452 96.8569 19.34 96.8569 19.116C96.8569 19.02 96.8169 18.936 96.7369 18.864C96.6569 18.792 96.5129 18.712 96.3049 18.624C96.1049 18.536 95.8169 18.416 95.4409 18.264C94.8889 18.032 94.4769 17.768 94.2049 17.472C93.9329 17.168 93.7969 16.744 93.7969 16.2C93.7969 15.552 94.0449 15.064 94.5409 14.736C95.0449 14.408 95.7089 14.244 96.5329 14.244C96.9729 14.244 97.3849 14.292 97.7689 14.388C98.1529 14.484 98.5529 14.624 98.9689 14.808L98.3449 16.284C98.0169 16.132 97.6849 16.012 97.3489 15.924C97.0129 15.836 96.7449 15.792 96.5449 15.792C96.1689 15.792 95.9809 15.884 95.9809 16.068C95.9809 16.148 96.0129 16.22 96.0769 16.284C96.1489 16.348 96.2809 16.42 96.4729 16.5C96.6649 16.58 96.9449 16.696 97.3129 16.848C97.6969 17 98.0129 17.168 98.2609 17.352C98.5169 17.528 98.7049 17.744 98.8249 18C98.9529 18.248 99.0169 18.568 99.0169 18.96Z" fill="#D381C9"/>
<path d="M91.3465 11.688C91.6745 11.688 91.9585 11.756 92.1985 11.892C92.4465 12.028 92.5705 12.3 92.5705 12.708C92.5705 13.1 92.4465 13.368 92.1985 13.512C91.9585 13.648 91.6745 13.716 91.3465 13.716C91.0105 13.716 90.7225 13.648 90.4825 13.512C90.2505 13.368 90.1345 13.1 90.1345 12.708C90.1345 12.3 90.2505 12.028 90.4825 11.892C90.7225 11.756 91.0105 11.688 91.3465 11.688ZM92.4865 14.364V21H90.1945V14.364H92.4865Z" fill="#D381C9"/>
<path d="M86.5277 14.244C87.2637 14.244 87.8397 14.54 88.2557 15.132C88.6717 15.716 88.8797 16.56 88.8797 17.664C88.8797 18.416 88.7717 19.052 88.5557 19.572C88.3477 20.084 88.0597 20.472 87.6917 20.736C87.3317 20.992 86.9197 21.12 86.4557 21.12C85.9917 21.12 85.6277 21.036 85.3637 20.868C85.1077 20.7 84.9077 20.528 84.7637 20.352H84.6917C84.7077 20.504 84.7237 20.668 84.7397 20.844C84.7557 21.02 84.7637 21.224 84.7637 21.456V23.88H82.4717V14.364H84.3317L84.6557 15.204H84.7637C84.9237 14.948 85.1397 14.724 85.4117 14.532C85.6917 14.34 86.0637 14.244 86.5277 14.244ZM85.6637 16.044C85.3277 16.044 85.0957 16.164 84.9677 16.404C84.8477 16.644 84.7797 17 84.7637 17.472V17.652C84.7637 18.18 84.8277 18.584 84.9557 18.864C85.0837 19.136 85.3237 19.272 85.6757 19.272C85.9637 19.272 86.1797 19.148 86.3237 18.9C86.4757 18.644 86.5517 18.224 86.5517 17.64C86.5517 17.056 86.4757 16.644 86.3237 16.404C86.1717 16.164 85.9517 16.044 85.6637 16.044Z" fill="#D381C9"/>
<path d="M81.1057 21H76.0177V12.432H81.1057V14.292H78.3337V15.636H80.9017V17.496H78.3337V19.116H81.1057V21Z" fill="#D381C9"/>
</svg>
