<?xml version="1.0" encoding="UTF-8" standalone="no"?>
<svg
   version="1.1"
   width="32"
   viewBox="0 0 32 31.999998"
   height="31.999998"
   enable-background="new 0 0 512 512"
   id="Capa_1"
   xmlns="http://www.w3.org/2000/svg"
   xmlns:svg="http://www.w3.org/2000/svg"
   xmlns:rdf="http://www.w3.org/1999/02/22-rdf-syntax-ns#"
   xmlns:cc="http://creativecommons.org/ns#"
   xmlns:dc="http://purl.org/dc/elements/1.1/">
  <metadata
     id="metadata15">
    <rdf:RDF>
      <cc:Work
         rdf:about="">
        <dc:format>image/svg+xml</dc:format>
        <dc:type
           rdf:resource="http://purl.org/dc/dcmitype/StillImage" />
      </cc:Work>
    </rdf:RDF>
  </metadata>
  <defs
     id="defs13" />
  <path
     id="circle5397"
     style="fill:#ffffff;fill-opacity:1;stroke:none;stroke-width:3.77954;stroke-linecap:round;stroke-linejoin:round;stroke-dasharray:none"
     d="M 24.248047 1.4511719 C 19.90152 1.4510814 16.495866 4.2755986 16.496094 7.609375 C 16.497994 9.1280938 17.206242 10.601159 18.527344 11.75 A 0.56555036 0.56555036 0 0 1 18.697266 12.339844 L 18.054688 14.494141 L 20.574219 13.228516 A 0.56555036 0.56555036 0 0 1 21.019531 13.205078 C 22.029588 13.573542 23.133683 13.765355 24.248047 13.765625 C 28.594124 13.765491 31.999896 10.942789 32 7.609375 C 32.000228 4.275758 28.594372 1.4513075 24.248047 1.4511719 z M 20.283203 4.4121094 L 25.472656 4.4121094 A 0.56549383 0.56549383 0 0 1 26.037109 4.9785156 A 0.56549383 0.56549383 0 0 1 25.472656 5.5449219 L 20.283203 5.5449219 A 0.56549383 0.56549383 0 0 1 19.716797 4.9785156 A 0.56549383 0.56549383 0 0 1 20.283203 4.4121094 z M 13.275391 6.46875 L 13.275391 21.654297 L 13.275391 6.46875 z M 20.283203 6.9023438 L 28.392578 6.9023438 A 0.56549383 0.56549383 0 0 1 28.957031 7.46875 A 0.56549383 0.56549383 0 0 1 28.392578 8.0332031 L 20.283203 8.0332031 A 0.56549383 0.56549383 0 0 1 19.716797 7.46875 A 0.56549383 0.56549383 0 0 1 20.283203 6.9023438 z M 20.283203 9.3925781 L 28.392578 9.3925781 A 0.56549383 0.56549383 0 0 1 28.957031 9.9570312 A 0.56549383 0.56549383 0 0 1 28.392578 10.523438 L 20.283203 10.523438 A 0.56549383 0.56549383 0 0 1 19.716797 9.9570312 A 0.56549383 0.56549383 0 0 1 20.283203 9.3925781 z M 8.4355469 9.9453125 C 4.4996265 9.9213325 2.8359376 11.257812 2.8359375 11.257812 L 2.8359375 26.246094 C 2.8359375 26.246094 4.4996265 24.909664 8.4355469 24.933594 C 10.987117 24.949094 12.456111 25.492264 13.177734 25.875 L 13.177734 10.888672 C 12.456111 10.505934 10.987117 9.9608645 8.4355469 9.9453125 z M 16.029297 10.273438 C 15.23538 10.461174 14.675981 10.694644 14.310547 10.888672 L 14.310547 25.876953 C 15.031483 25.494173 16.500885 24.949157 19.054688 24.933594 C 22.990607 24.909614 24.65625 26.246094 24.65625 26.246094 L 24.65625 14.886719 C 24.52059 14.891819 24.385061 14.896484 24.248047 14.896484 C 23.105226 14.896215 21.989494 14.668004 20.929688 14.316406 L 17.394531 16.09375 A 0.56555036 0.56555036 0 0 1 16.597656 15.427734 L 17.533203 12.28125 C 16.909267 11.676807 16.398814 11.000101 16.029297 10.273438 z M 1.7050781 12.394531 L 1.0058594 12.470703 A 1.1311008 1.1311008 0 0 0 0 13.59375 L 0 29.417969 A 1.1311008 1.1311008 0 0 0 1.2792969 30.539062 L 11.650391 29.160156 A 2.3713991 2.3713991 0 0 0 13.744141 30.425781 A 2.3713991 2.3713991 0 0 0 15.841797 29.160156 L 26.210938 30.539062 A 1.1311008 1.1311008 0 0 0 27.490234 29.417969 L 27.490234 14.394531 C 26.945574 14.5697 26.375581 14.700512 25.787109 14.785156 L 25.787109 26.244141 A 1.1311008 1.1311008 0 0 1 23.947266 27.126953 C 23.947266 27.126953 23.728196 26.925917 22.945312 26.640625 C 22.162436 26.355326 20.899568 26.05119 19.060547 26.0625 C 17.215169 26.07382 16.033599 26.378921 15.335938 26.650391 C 14.638273 26.921862 14.519529 27.070312 14.519531 27.070312 A 1.1311008 1.1311008 0 0 1 14.486328 27.095703 A 1.1311008 1.1311008 0 0 1 14.384766 27.173828 A 1.1311008 1.1311008 0 0 1 14.318359 27.21875 A 1.1311008 1.1311008 0 0 1 14.183594 27.287109 A 1.1311008 1.1311008 0 0 1 14.103516 27.314453 A 1.1311008 1.1311008 0 0 1 13.988281 27.347656 A 1.1311008 1.1311008 0 0 1 13.886719 27.365234 A 1.1311008 1.1311008 0 0 1 13.765625 27.373047 A 1.1311008 1.1311008 0 0 1 13.691406 27.373047 A 1.1311008 1.1311008 0 0 1 13.533203 27.355469 A 1.1311008 1.1311008 0 0 1 13.462891 27.339844 A 1.1311008 1.1311008 0 0 1 13.330078 27.294922 A 1.1311008 1.1311008 0 0 1 13.253906 27.261719 A 1.1311008 1.1311008 0 0 1 13.146484 27.201172 A 1.1311008 1.1311008 0 0 1 13.082031 27.162109 A 1.1311008 1.1311008 0 0 1 12.972656 27.070312 C 12.972656 27.070312 12.963236 27.059516 12.941406 27.041016 C 12.875676 26.986606 12.679493 26.855944 12.15625 26.652344 C 11.458579 26.380859 10.275073 26.07381 8.4296875 26.0625 C 6.5906671 26.051195 5.3277996 26.355325 4.5449219 26.640625 C 3.7620441 26.925916 3.5410156 27.126953 3.5410156 27.126953 A 1.1311008 1.1311008 0 0 1 1.7050781 26.244141 L 1.7050781 12.394531 z M 8.1367188 13.746094 A 0.50070535 0.49939898 0 0 1 8.609375 14.076172 L 9.4707031 16.5 L 12.046875 16.568359 A 0.50070535 0.49939898 0 0 1 12.337891 17.464844 L 10.294922 19.03125 L 11.025391 21.498047 A 0.50070535 0.49939898 0 0 1 10.261719 22.050781 L 8.1367188 20.59375 L 6.0117188 22.050781 A 0.50070535 0.49939898 0 0 1 5.2480469 21.498047 L 5.9785156 19.03125 L 3.9335938 17.464844 A 0.50070535 0.49939898 0 0 1 4.2246094 16.568359 L 6.8027344 16.5 L 7.6660156 14.076172 A 0.50070535 0.49939898 0 0 1 8.1367188 13.746094 z M 8.1367188 15.738281 L 7.6308594 17.158203 A 0.50070535 0.49939898 0 0 1 7.1738281 17.490234 L 5.6621094 17.53125 L 6.8613281 18.449219 A 0.50070535 0.49939898 0 0 1 7.0351562 18.984375 L 6.6074219 20.431641 L 7.8535156 19.578125 A 0.50070535 0.49939898 0 0 1 8.4199219 19.578125 L 9.6640625 20.431641 L 9.2363281 18.984375 A 0.50070535 0.49939898 0 0 1 9.4121094 18.449219 L 10.609375 17.53125 L 9.0996094 17.490234 A 0.50070535 0.49939898 0 0 1 8.640625 17.158203 L 8.1367188 15.738281 z " />
</svg>
