<?xml version="1.0" standalone="no"?>
<!DOCTYPE svg PUBLIC "-//W3C//DTD SVG 20010904//EN"
 "http://www.w3.org/TR/2001/REC-SVG-20010904/DTD/svg10.dtd">
<svg version="1.0" xmlns="http://www.w3.org/2000/svg"
 width="142.000000pt" height="160.000000pt" viewBox="0 0 142.000000 160.000000"
 preserveAspectRatio="xMidYMid meet">

<g transform="translate(0.000000,160.000000) scale(0.100000,-0.100000)"
fill="#000000" stroke="none">
<path d="M524 1581 c-109 -49 -156 -206 -94 -308 37 -61 105 -100 273 -155
197 -64 217 -79 217 -165 0 -99 -49 -179 -130 -213 -27 -11 -30 -17 -30 -56
l0 -43 33 6 c85 16 183 95 227 183 27 53 37 153 21 203 -25 74 -122 132 -262
157 -193 34 -275 86 -295 189 -15 74 50 161 119 161 43 0 96 -29 113 -62 15
-28 14 -31 -7 -54 -20 -21 -21 -28 -11 -61 13 -43 66 -107 85 -101 18 6 39 56
45 105 4 35 0 48 -16 66 -12 12 -28 38 -36 57 -40 97 -151 137 -252 91z"/>
<path d="M0 1020 c0 -14 49 -37 95 -45 74 -14 144 -46 222 -102 139 -100 239
-143 330 -143 l33 0 0 -130 0 -130 30 0 30 0 0 134 0 134 25 6 c34 9 93 62
114 105 27 52 35 116 21 152 l-12 29 -444 0 c-282 0 -444 -4 -444 -10z"/>
<path d="M1067 978 c3 -30 -2 -74 -10 -100 -17 -54 -19 -54 66 8 62 46 135 77
207 89 46 8 90 30 90 46 0 5 -80 9 -178 9 l-179 0 4 -52z"/>
<path d="M578 691 c-57 -36 -78 -74 -78 -139 0 -65 30 -109 95 -142 69 -34
187 -35 257 -1 68 33 108 82 108 131 0 35 -5 43 -32 60 -33 20 -99 26 -145 14
-17 -5 -23 -14 -23 -35 0 -26 3 -29 34 -29 69 0 49 -70 -26 -90 -45 -13 -96
-7 -139 16 -50 25 -47 105 6 140 20 13 25 24 25 60 0 54 -16 57 -82 15z"/>
<path d="M624 546 c-15 -12 -17 -18 -8 -33 18 -29 39 -22 42 15 4 35 -4 39
-34 18z"/>
<path d="M540 361 c0 -56 28 -105 75 -132 17 -10 73 -22 130 -29 55 -6 113
-16 128 -22 15 -6 31 -7 35 -3 13 13 -47 53 -90 59 -141 22 -181 43 -198 106
-8 28 -20 44 -40 55 -16 8 -31 15 -35 15 -3 0 -5 -22 -5 -49z"/>
<path d="M682 318 c3 -39 6 -43 31 -46 26 -3 27 -2 27 42 0 45 -1 46 -31 46
-29 0 -30 -1 -27 -42z"/>
<path d="M680 157 c0 -42 -25 -66 -87 -83 -27 -7 -66 -20 -88 -28 -22 -8 -56
-15 -76 -16 -19 0 -44 -7 -55 -15 -17 -13 22 -14 336 -14 298 0 352 2 337 13
-9 7 -42 16 -73 20 -31 3 -65 11 -76 17 -11 6 -45 17 -76 25 -63 16 -82 34
-82 75 0 19 -6 28 -22 33 -36 9 -38 8 -38 -27z"/>
</g>
</svg>
