<?xml version="1.0" encoding="utf-8"?>
<svg viewBox="0 0 500 500" width="500" height="500" xmlns="http://www.w3.org/2000/svg">
  <defs>
    <path id="path-0" style="fill: none;" d="M 24.937 334.921 C 141.7 334.921 190.727 334.921 239.754 334.921 C 284.588 334.921 320.713 334.921 356.839 334.921 C 383.288 334.921 405.866 334.921 428.444 334.921 L 431.347 334.921 C 445.217 334.921 459.086 334.921 472.956 334.921"/>
  </defs>
  <path d="M 170.52 243.51 L 166 243.51 L 163.59 240.49 L 160.02 244.06 L 158.35 242.39 L 162.1 238.64 L 157.7 233.11 L 153.73 233.11 L 153.73 243.51 L 150.25 243.51 L 150.25 217.34 L 157 217.34 Q 159.25 217.34 160.77 217.58 Q 162.29 217.83 163.66 218.73 Q 165.03 219.61 165.83 220.99 Q 166.63 222.38 166.63 224.44 Q 166.63 227.32 165.17 229.26 Q 163.71 231.19 161.2 232.12 L 164.54 236.2 L 168.27 232.47 L 169.94 234.14 L 166.03 238.05 Z M 162.99 224.7 Q 162.99 223.56 162.59 222.67 Q 162.18 221.79 161.34 221.22 Q 160.6 220.73 159.62 220.53 Q 158.63 220.33 157.17 220.33 L 153.73 220.33 L 153.73 230.21 L 156.79 230.21 Q 158.28 230.21 159.48 229.94 Q 160.67 229.68 161.52 228.85 Q 162.27 228.11 162.63 227.09 Q 162.99 226.07 162.99 224.7 Z" transform="matrix(20.761799, 0, 0, 7.937557, -3054.244141, -1656.600098)" style="text-decoration: underline overline solid rgba(255, 255, 255, 0.9);"/>
  <path d="M 27.1 334.92 L 27.1 314.88 L 33.16 314.88 L 36.79 328.55 L 40.39 314.88 L 46.46 314.88 L 46.46 334.92 L 42.7 334.92 L 42.7 319.14 L 38.72 334.92 L 34.82 334.92 L 30.86 319.14 L 30.86 334.92 Z M 61.96 330.3 L 65.79 330.94 Q 65.05 333.05 63.45 334.15 Q 61.86 335.25 59.47 335.25 Q 55.68 335.25 53.86 332.77 Q 52.43 330.79 52.43 327.77 Q 52.43 324.16 54.31 322.12 Q 56.2 320.07 59.09 320.07 Q 62.33 320.07 64.2 322.21 Q 66.07 324.35 65.99 328.77 L 56.37 328.77 Q 56.41 330.48 57.3 331.43 Q 58.18 332.38 59.51 332.38 Q 60.41 332.38 61.03 331.89 Q 61.64 331.39 61.96 330.3 Z M 62.18 326.42 Q 62.14 324.75 61.31 323.88 Q 60.49 323.01 59.32 323.01 Q 58.06 323.01 57.24 323.93 Q 56.42 324.84 56.43 326.42 Z M 79.27 334.92 L 75.7 334.92 L 75.7 332.79 Q 74.81 334.03 73.6 334.64 Q 72.39 335.25 71.16 335.25 Q 68.66 335.25 66.88 333.23 Q 65.09 331.22 65.09 327.61 Q 65.09 323.92 66.83 321.99 Q 68.56 320.07 71.22 320.07 Q 73.65 320.07 75.43 322.1 L 75.43 314.88 L 79.27 314.88 Z M 69.02 327.35 Q 69.02 329.67 69.66 330.71 Q 70.59 332.21 72.26 332.21 Q 73.58 332.21 74.51 331.09 Q 75.44 329.96 75.44 327.72 Q 75.44 325.21 74.54 324.11 Q 73.64 323.01 72.23 323.01 Q 70.86 323.01 69.94 324.1 Q 69.02 325.19 69.02 327.35 Z M 81.4 318.43 L 81.4 314.88 L 85.24 314.88 L 85.24 318.43 Z M 81.4 334.92 L 81.4 320.4 L 85.24 320.4 L 85.24 334.92 Z M 101.97 324.69 L 98.19 325.38 Q 97.99 324.24 97.32 323.67 Q 96.64 323.09 95.56 323.09 Q 94.13 323.09 93.27 324.09 Q 92.42 325.08 92.42 327.4 Q 92.42 329.99 93.28 331.05 Q 94.15 332.12 95.62 332.12 Q 96.71 332.12 97.41 331.5 Q 98.1 330.87 98.39 329.36 L 102.16 330 Q 101.58 332.6 99.91 333.92 Q 98.24 335.25 95.44 335.25 Q 92.25 335.25 90.36 333.24 Q 88.46 331.23 88.46 327.67 Q 88.46 324.08 90.37 322.08 Q 92.27 320.07 95.51 320.07 Q 98.16 320.07 99.72 321.21 Q 101.29 322.36 101.97 324.69 Z M 104.59 324.83 L 101.11 324.2 Q 101.7 322.1 103.13 321.09 Q 104.57 320.07 107.4 320.07 Q 109.97 320.07 111.23 320.68 Q 112.48 321.29 113 322.23 Q 113.51 323.16 113.51 325.67 L 113.47 330.15 Q 113.47 332.06 113.65 332.97 Q 113.84 333.88 114.34 334.92 L 110.54 334.92 Q 110.39 334.54 110.17 333.79 Q 110.08 333.44 110.04 333.34 Q 109.05 334.29 107.93 334.77 Q 106.81 335.25 105.54 335.25 Q 103.3 335.25 102 334.03 Q 100.71 332.82 100.71 330.96 Q 100.71 329.73 101.3 328.76 Q 101.89 327.8 102.95 327.29 Q 104.01 326.77 106 326.39 Q 108.7 325.88 109.74 325.45 L 109.74 325.06 Q 109.74 323.96 109.19 323.48 Q 108.64 323.01 107.12 323.01 Q 106.1 323.01 105.52 323.42 Q 104.95 323.82 104.59 324.83 Z M 109.74 327.95 Q 109 328.19 107.4 328.54 Q 105.8 328.88 105.31 329.21 Q 104.55 329.74 104.55 330.56 Q 104.55 331.37 105.16 331.95 Q 105.76 332.54 106.69 332.54 Q 107.73 332.54 108.67 331.86 Q 109.37 331.34 109.58 330.59 Q 109.74 330.09 109.74 328.71 Z M 115.63 334.92 L 115.63 314.88 L 119.47 314.88 L 119.47 334.92 Z M 131.06 320.4 L 134.64 320.4 L 134.64 322.53 Q 135.34 321.44 136.53 320.76 Q 137.72 320.07 139.17 320.07 Q 141.7 320.07 143.46 322.06 Q 145.23 324.04 145.23 327.58 Q 145.23 331.22 143.45 333.23 Q 141.67 335.25 139.14 335.25 Q 137.94 335.25 136.96 334.77 Q 135.98 334.29 134.9 333.13 L 134.9 340.44 L 131.06 340.44 Z M 134.86 327.42 Q 134.86 329.86 135.83 331.03 Q 136.8 332.2 138.2 332.2 Q 139.54 332.2 140.43 331.13 Q 141.32 330.05 141.32 327.61 Q 141.32 325.32 140.4 324.22 Q 139.48 323.11 138.13 323.11 Q 136.72 323.11 135.79 324.2 Q 134.86 325.28 134.86 327.42 Z M 150.41 334.92 L 146.57 334.92 L 146.57 320.4 L 150.14 320.4 L 150.14 322.47 Q 151.05 321 151.78 320.54 Q 152.52 320.07 153.45 320.07 Q 154.76 320.07 155.97 320.8 L 154.79 324.15 Q 153.81 323.52 152.98 323.52 Q 152.17 323.52 151.61 323.96 Q 151.05 324.41 150.73 325.57 Q 150.41 326.73 150.41 330.44 Z M 167.2 330.3 L 171.03 330.94 Q 170.29 333.05 168.7 334.15 Q 167.1 335.25 164.71 335.25 Q 160.92 335.25 159.11 332.77 Q 157.67 330.79 157.67 327.77 Q 157.67 324.16 159.56 322.12 Q 161.44 320.07 164.33 320.07 Q 167.57 320.07 169.44 322.21 Q 171.32 324.35 171.23 328.77 L 161.61 328.77 Q 161.65 330.48 162.54 331.43 Q 163.43 332.38 164.75 332.38 Q 165.65 332.38 166.27 331.89 Q 166.89 331.39 167.2 330.3 Z M 167.42 326.42 Q 167.38 324.75 166.56 323.88 Q 165.74 323.01 164.56 323.01 Q 163.3 323.01 162.48 323.93 Q 161.66 324.84 161.68 326.42 Z M 169.9 330.78 L 173.76 330.19 Q 174.01 331.31 174.76 331.89 Q 175.51 332.47 176.86 332.47 Q 178.35 332.47 179.11 331.93 Q 179.61 331.54 179.61 330.9 Q 179.61 330.46 179.34 330.18 Q 179.05 329.9 178.05 329.67 Q 173.4 328.65 172.16 327.8 Q 170.44 326.62 170.44 324.53 Q 170.44 322.64 171.93 321.36 Q 173.42 320.07 176.55 320.07 Q 179.53 320.07 180.98 321.04 Q 182.43 322.01 182.98 323.92 L 179.35 324.59 Q 179.12 323.74 178.47 323.29 Q 177.82 322.84 176.62 322.84 Q 175.1 322.84 174.44 323.26 Q 174.01 323.56 174.01 324.04 Q 174.01 324.45 174.39 324.74 Q 174.91 325.12 177.98 325.82 Q 181.05 326.51 182.26 327.52 Q 183.47 328.55 183.47 330.38 Q 183.47 332.38 181.8 333.81 Q 180.13 335.25 176.86 335.25 Q 173.9 335.25 172.17 334.05 Q 170.44 332.84 169.9 330.78 Z M 194.73 324.69 L 190.95 325.38 Q 190.76 324.24 190.08 323.67 Q 189.4 323.09 188.32 323.09 Q 186.89 323.09 186.03 324.09 Q 185.18 325.08 185.18 327.4 Q 185.18 329.99 186.05 331.05 Q 186.91 332.12 188.38 332.12 Q 189.47 332.12 190.17 331.5 Q 190.86 330.87 191.15 329.36 L 194.93 330 Q 194.34 332.6 192.67 333.92 Q 191 335.25 188.2 335.25 Q 185.01 335.25 183.12 333.24 Q 181.23 331.23 181.23 327.67 Q 181.23 324.08 183.13 322.08 Q 185.03 320.07 188.27 320.07 Q 190.92 320.07 192.48 321.21 Q 194.05 322.36 194.73 324.69 Z M 198.12 334.92 L 194.28 334.92 L 194.28 320.4 L 197.85 320.4 L 197.85 322.47 Q 198.77 321 199.5 320.54 Q 200.23 320.07 201.16 320.07 Q 202.47 320.07 203.69 320.8 L 202.5 324.15 Q 201.53 323.52 200.69 323.52 Q 199.89 323.52 199.33 323.96 Q 198.77 324.41 198.44 325.57 Q 198.12 326.73 198.12 330.44 Z M 206.89 318.43 L 206.89 314.88 L 210.73 314.88 L 210.73 318.43 Z M 206.89 334.92 L 206.89 320.4 L 210.73 320.4 L 210.73 334.92 Z M 214.44 320.4 L 218.03 320.4 L 218.03 322.53 Q 218.72 321.44 219.91 320.76 Q 221.1 320.07 222.55 320.07 Q 225.08 320.07 226.84 322.06 Q 228.61 324.04 228.61 327.58 Q 228.61 331.22 226.83 333.23 Q 225.05 335.25 222.52 335.25 Q 221.32 335.25 220.34 334.77 Q 219.37 334.29 218.29 333.13 L 218.29 340.44 L 214.44 340.44 Z M 218.25 327.42 Q 218.25 329.86 219.22 331.03 Q 220.19 332.2 221.58 332.2 Q 222.92 332.2 223.81 331.13 Q 224.7 330.05 224.7 327.61 Q 224.7 325.32 223.78 324.22 Q 222.87 323.11 221.51 323.11 Q 220.1 323.11 219.17 324.2 Q 218.25 325.28 218.25 327.42 Z M 236.8 320.4 L 236.8 323.46 L 234.18 323.46 L 234.18 329.32 Q 234.18 331.09 234.25 331.39 Q 234.33 331.68 234.59 331.87 Q 234.86 332.06 235.24 332.06 Q 235.78 332.06 236.79 331.69 L 237.12 334.67 Q 235.78 335.25 234.08 335.25 Q 233.04 335.25 232.21 334.9 Q 231.37 334.55 230.99 334 Q 230.6 333.44 230.45 332.5 Q 230.32 331.83 230.32 329.79 L 230.32 323.46 L 228.56 323.46 L 228.56 320.4 L 230.32 320.4 L 230.32 317.52 L 234.18 315.27 L 234.18 320.4 Z M 239.5 318.43 L 239.5 314.88 L 243.34 314.88 L 243.34 318.43 Z M 239.5 334.92 L 239.5 320.4 L 243.34 320.4 L 243.34 334.92 Z M 246.66 327.46 Q 246.66 325.54 247.61 323.75 Q 248.55 321.96 250.28 321.02 Q 252.01 320.07 254.14 320.07 Q 257.44 320.07 259.54 322.21 Q 261.65 324.35 261.65 327.62 Q 261.65 330.92 259.52 333.08 Q 257.4 335.25 254.17 335.25 Q 252.17 335.25 250.36 334.35 Q 248.55 333.44 247.61 331.7 Q 246.66 329.96 246.66 327.46 Z M 250.6 327.66 Q 250.6 329.82 251.63 330.97 Q 252.65 332.12 254.16 332.12 Q 255.66 332.12 256.68 330.97 Q 257.7 329.82 257.7 327.63 Q 257.7 325.5 256.68 324.35 Q 255.66 323.2 254.16 323.2 Q 252.65 323.2 251.63 324.35 Q 250.6 325.5 250.6 327.66 Z M 274.6 334.92 L 270.76 334.92 L 270.76 327.51 Q 270.76 325.16 270.51 324.47 Q 270.27 323.78 269.71 323.4 Q 269.16 323.01 268.38 323.01 Q 267.38 323.01 266.59 323.56 Q 265.8 324.11 265.5 325.01 Q 265.21 325.91 265.21 328.34 L 265.21 334.92 L 261.37 334.92 L 261.37 320.4 L 264.94 320.4 L 264.94 322.53 Q 266.84 320.07 269.72 320.07 Q 270.99 320.07 272.05 320.53 Q 273.1 320.99 273.64 321.7 Q 274.18 322.41 274.39 323.31 Q 274.6 324.22 274.6 325.9 Z M 283.82 327.46 Q 283.82 325.54 284.77 323.75 Q 285.71 321.96 287.44 321.02 Q 289.17 320.07 291.3 320.07 Q 294.6 320.07 296.7 322.21 Q 298.81 324.35 298.81 327.62 Q 298.81 330.92 296.68 333.08 Q 294.55 335.25 291.33 335.25 Q 289.33 335.25 287.52 334.35 Q 285.71 333.44 284.77 331.7 Q 283.82 329.96 283.82 327.46 Z M 287.76 327.66 Q 287.76 329.82 288.78 330.97 Q 289.81 332.12 291.31 332.12 Q 292.82 332.12 293.84 330.97 Q 294.86 329.82 294.86 327.63 Q 294.86 325.5 293.84 324.35 Q 292.82 323.2 291.31 323.2 Q 289.81 323.2 288.78 324.35 Q 287.76 325.5 287.76 327.66 Z M 302.18 334.92 L 298.34 334.92 L 298.34 320.4 L 301.9 320.4 L 301.9 322.47 Q 302.82 321 303.55 320.54 Q 304.28 320.07 305.21 320.07 Q 306.52 320.07 307.74 320.8 L 306.55 324.15 Q 305.58 323.52 304.75 323.52 Q 303.94 323.52 303.38 323.96 Q 302.82 324.41 302.5 325.57 Q 302.18 326.73 302.18 330.44 Z M 324.37 334.92 L 320.8 334.92 L 320.8 332.79 Q 319.92 334.03 318.71 334.64 Q 317.5 335.25 316.26 335.25 Q 313.76 335.25 311.98 333.23 Q 310.19 331.22 310.19 327.61 Q 310.19 323.92 311.93 321.99 Q 313.67 320.07 316.32 320.07 Q 318.75 320.07 320.53 322.1 L 320.53 314.88 L 324.37 314.88 Z M 314.12 327.35 Q 314.12 329.67 314.76 330.71 Q 315.69 332.21 317.36 332.21 Q 318.68 332.21 319.61 331.09 Q 320.54 329.96 320.54 327.72 Q 320.54 325.21 319.64 324.11 Q 318.74 323.01 317.33 323.01 Q 315.96 323.01 315.04 324.1 Q 314.12 325.19 314.12 327.35 Z M 334.9 330.3 L 338.72 330.94 Q 337.99 333.05 336.39 334.15 Q 334.8 335.25 332.41 335.25 Q 328.62 335.25 326.8 332.77 Q 325.37 330.79 325.37 327.77 Q 325.37 324.16 327.25 322.12 Q 329.14 320.07 332.02 320.07 Q 335.26 320.07 337.14 322.21 Q 339.01 324.35 338.93 328.77 L 329.3 328.77 Q 329.34 330.48 330.23 331.43 Q 331.12 332.38 332.45 332.38 Q 333.35 332.38 333.97 331.89 Q 334.58 331.39 334.9 330.3 Z M 335.11 326.42 Q 335.07 324.75 334.25 323.88 Q 333.43 323.01 332.26 323.01 Q 331 323.01 330.18 323.93 Q 329.36 324.84 329.37 326.42 Z M 342.64 334.92 L 338.8 334.92 L 338.8 320.4 L 342.36 320.4 L 342.36 322.47 Q 343.28 321 344.01 320.54 Q 344.74 320.07 345.67 320.07 Q 346.98 320.07 348.2 320.8 L 347.01 324.15 Q 346.04 323.52 345.21 323.52 Q 344.4 323.52 343.84 323.96 Q 343.28 324.41 342.96 325.57 Q 342.64 326.73 342.64 330.44 Z" transform="matrix(1.481822, 0, 0, 1.81463, -32.425159, -232.346085)"/>
  <rect x="15.261" y="297.936" width="460.598" height="14.515" style="stroke: rgb(0, 0, 0); paint-order: stroke; stroke-width: 13px;" transform="matrix(1, 0, 0, 1, 0, -1.4210854715202004e-14)"/>
  <rect x="13.326" y="15.652" width="460.598" height="14.515" style="stroke: rgb(0, 0, 0); paint-order: stroke; stroke-width: 13px;" transform="matrix(1, 0, 0, 1, 0, -1.4210854715202004e-14)"/>
</svg>